<?xml version="1.0" encoding="utf-8"?><!-- Uploaded to: SVG Repo, www.svgrepo.com, Generator: SVG Repo Mixer Tools -->
<svg version="1.1" id="Uploaded to svgrepo.com" xmlns="http://www.w3.org/2000/svg" xmlns:xlink="http://www.w3.org/1999/xlink" 
	 width="800px" height="800px" viewBox="0 0 32 32" xml:space="preserve">
<style type="text/css">
	.linesandangles_een{fill:#111918;}
</style>
<path class="linesandangles_een" d="M21.364,13.05l-3.438,3.438C17.969,16.653,18,16.822,18,17c0,1.105-0.895,2-2,2s-2-0.895-2-2
	c0-1.105,0.895-2,2-2c0.178,0,0.347,0.031,0.512,0.074l3.438-3.439L21.364,13.05z M28,17c0,3.588-1.504,6.802-4,9h-2
	c-1.465-1.826-3.477-3-6-3s-4.535,1.174-6,3H8c-2.496-2.198-4-5.412-4-9C4,10.373,9.373,5,16,5S28,10.373,28,17z M25.954,18H24v-2
	h1.949c-0.2-2.008-0.998-3.842-2.211-5.324l-1.374,1.374l-1.414-1.414l1.374-1.374C20.842,8.048,19.008,7.251,17,7.051V9h-2V7.051
	c-2.008,0.2-3.842,0.998-5.324,2.211l1.374,1.374L9.636,12.05l-1.374-1.374C7.048,12.158,6.251,13.992,6.051,16H8v2H6.046
	c0.214,2.303,1.167,4.387,2.749,6h0.299c1.877-1.967,4.246-3,6.906-3c2.66,0,5.029,1.033,6.906,3h0.299
	C24.787,22.387,25.74,20.303,25.954,18z"/>
</svg>